<mxfile host="app.diagrams.net" agent="Mozilla/5.0 (X11; Linux x86_64; rv:141.0) Gecko/20100101 Firefox/141.0" version="28.0.7">
  <diagram name="Page-1" id="2cbPO8P5AXQh9JMCgNKW">
    <mxGraphModel dx="854" dy="638" grid="1" gridSize="10" guides="1" tooltips="1" connect="1" arrows="1" fold="1" page="1" pageScale="1" pageWidth="850" pageHeight="1100" math="0" shadow="0">
      <root>
        <mxCell id="0" />
        <mxCell id="1" parent="0" />
        <mxCell id="5rdUagbarLgm_j7guXsJ-1" value="" style="shape=cube;whiteSpace=wrap;html=1;boundedLbl=1;backgroundOutline=1;darkOpacity=0.05;darkOpacity2=0.1;size=88;" parent="1" vertex="1">
          <mxGeometry x="172" y="360" width="505.28" height="360" as="geometry" />
        </mxCell>
        <mxCell id="5rdUagbarLgm_j7guXsJ-2" value="" style="shape=cube;whiteSpace=wrap;html=1;boundedLbl=1;backgroundOutline=1;darkOpacity=0.05;darkOpacity2=0.1;size=10;" parent="1" vertex="1">
          <mxGeometry x="370" y="450" width="180" height="280" as="geometry" />
        </mxCell>
        <mxCell id="5rdUagbarLgm_j7guXsJ-3" value="" style="shape=cube;whiteSpace=wrap;html=1;boundedLbl=1;backgroundOutline=1;darkOpacity=0.05;darkOpacity2=0.1;size=30;" parent="1" vertex="1">
          <mxGeometry x="180" y="640" width="60.28" height="60" as="geometry" />
        </mxCell>
        <mxCell id="XTqz-vnikhs0NxOUYjP8-2" value="" style="endArrow=none;html=1;rounded=0;exitX=0;exitY=0;exitDx=0;exitDy=0;exitPerimeter=0;" parent="1" source="5rdUagbarLgm_j7guXsJ-3" edge="1">
          <mxGeometry width="50" height="50" relative="1" as="geometry">
            <mxPoint x="300.28" y="680" as="sourcePoint" />
            <mxPoint x="130" y="640" as="targetPoint" />
          </mxGeometry>
        </mxCell>
        <mxCell id="XTqz-vnikhs0NxOUYjP8-7" value="" style="endArrow=none;html=1;rounded=0;exitX=0;exitY=0;exitDx=0;exitDy=30;exitPerimeter=0;" parent="1" source="5rdUagbarLgm_j7guXsJ-3" edge="1">
          <mxGeometry width="50" height="50" relative="1" as="geometry">
            <mxPoint x="190.27999999999997" y="680" as="sourcePoint" />
            <mxPoint x="130" y="670" as="targetPoint" />
          </mxGeometry>
        </mxCell>
        <mxCell id="XTqz-vnikhs0NxOUYjP8-10" value="" style="endArrow=open;html=1;rounded=0;endFill=0;startArrow=open;startFill=0;" parent="1" edge="1">
          <mxGeometry relative="1" as="geometry">
            <mxPoint x="130.27999999999997" y="640" as="sourcePoint" />
            <mxPoint x="130" y="670" as="targetPoint" />
          </mxGeometry>
        </mxCell>
        <mxCell id="XTqz-vnikhs0NxOUYjP8-11" value="&lt;div&gt;0.5&lt;/div&gt;" style="edgeLabel;resizable=0;html=1;;align=center;verticalAlign=middle;" parent="XTqz-vnikhs0NxOUYjP8-10" connectable="0" vertex="1">
          <mxGeometry relative="1" as="geometry" />
        </mxCell>
        <mxCell id="XTqz-vnikhs0NxOUYjP8-14" value="" style="endArrow=none;html=1;rounded=0;entryX=0;entryY=0;entryDx=60.279999999999994;entryDy=30;entryPerimeter=0;" parent="1" target="5rdUagbarLgm_j7guXsJ-3" edge="1">
          <mxGeometry width="50" height="50" relative="1" as="geometry">
            <mxPoint x="240.28" y="600" as="sourcePoint" />
            <mxPoint x="240.28" y="660" as="targetPoint" />
          </mxGeometry>
        </mxCell>
        <mxCell id="XTqz-vnikhs0NxOUYjP8-16" value="" style="endArrow=open;html=1;rounded=0;endFill=0;startArrow=open;startFill=0;" parent="1" edge="1">
          <mxGeometry relative="1" as="geometry">
            <mxPoint x="210" y="570" as="sourcePoint" />
            <mxPoint x="240" y="600" as="targetPoint" />
          </mxGeometry>
        </mxCell>
        <mxCell id="XTqz-vnikhs0NxOUYjP8-17" value="&lt;div&gt;2&lt;/div&gt;" style="edgeLabel;resizable=0;html=1;;align=center;verticalAlign=middle;" parent="XTqz-vnikhs0NxOUYjP8-16" connectable="0" vertex="1">
          <mxGeometry relative="1" as="geometry" />
        </mxCell>
        <mxCell id="XTqz-vnikhs0NxOUYjP8-18" value="" style="endArrow=none;html=1;rounded=0;entryX=0;entryY=0;entryDx=30;entryDy=60;entryPerimeter=0;" parent="1" target="5rdUagbarLgm_j7guXsJ-3" edge="1">
          <mxGeometry width="50" height="50" relative="1" as="geometry">
            <mxPoint x="210" y="730" as="sourcePoint" />
            <mxPoint x="280.28" y="630" as="targetPoint" />
          </mxGeometry>
        </mxCell>
        <mxCell id="XTqz-vnikhs0NxOUYjP8-19" value="" style="endArrow=none;html=1;rounded=0;entryX=1;entryY=1;entryDx=0;entryDy=0;entryPerimeter=0;" parent="1" target="5rdUagbarLgm_j7guXsJ-3" edge="1">
          <mxGeometry width="50" height="50" relative="1" as="geometry">
            <mxPoint x="240" y="730" as="sourcePoint" />
            <mxPoint x="220" y="680" as="targetPoint" />
          </mxGeometry>
        </mxCell>
        <mxCell id="XTqz-vnikhs0NxOUYjP8-20" value="" style="endArrow=open;html=1;rounded=0;endFill=0;startArrow=open;startFill=0;" parent="1" edge="1">
          <mxGeometry relative="1" as="geometry">
            <mxPoint x="210.27999999999997" y="730" as="sourcePoint" />
            <mxPoint x="240.27999999999997" y="730" as="targetPoint" />
          </mxGeometry>
        </mxCell>
        <mxCell id="XTqz-vnikhs0NxOUYjP8-21" value="0.5" style="edgeLabel;resizable=0;html=1;;align=center;verticalAlign=middle;" parent="XTqz-vnikhs0NxOUYjP8-20" connectable="0" vertex="1">
          <mxGeometry relative="1" as="geometry" />
        </mxCell>
        <mxCell id="XTqz-vnikhs0NxOUYjP8-23" value="" style="endArrow=none;html=1;rounded=0;entryX=0;entryY=0;entryDx=60.279999999999994;entryDy=30;entryPerimeter=0;" parent="1" edge="1">
          <mxGeometry width="50" height="50" relative="1" as="geometry">
            <mxPoint x="210.22" y="570" as="sourcePoint" />
            <mxPoint x="209.94" y="640" as="targetPoint" />
          </mxGeometry>
        </mxCell>
      </root>
    </mxGraphModel>
  </diagram>
</mxfile>
